# xmcd
#
# Track frame offsets: 
#        150
#        12890
#        29916
#        48704
#        63022
#        73628
#        88996
#        104803
#        120577
#        135844
#        149762
#        168063
#        178626
#        194016
#        206656
#        228857
#        241584
#        262037
#        275800
#        287650
#
# Disc length: 3989 seconds
#
# Revision: 0
# Processed by: cddbd v1.5.2PL0 Copyright (c) Steve Scherf et al.
# Submitted via: ExactAudioCopyFreeDBPlugin 1.0
#
DISCID=330f9314
DTITLE=Various Artist - 100 Hits Country Disc 2
DYEAR=2015
DGENRE=Country
TTITLE0=Lynn Anderson - Rose Garden
TTITLE1=Johnny Cash - (Ghost) Riders in the sky
TTITLE2=Kris Kristofferson - Me and Bobby McGee
TTITLE3=John Denver - Take me home, country roads
TTITLE4=The Everly Brothers - I'm on my way home again
TTITLE5=Rodney Crowell - Leaving Louisiana in the broad daylight
TTITLE6=Maria Muldaur - My Tennessee mountain home
TTITLE7=Carlene Carter - Do it in a heartbeat
TTITLE8=George Jones - Real deal
TTITLE9=The Forester Sisters - (That's what you do) When you are in lo
TTITLE9=ve
TTITLE10=Willie Nelson - Whiskey river
TTITLE11=Glen Campbell - Time in a bottle
TTITLE12=Hoyt Axton - Della and the dealer
TTITLE13=John Michael Montgomery - Be my baby tonight
TTITLE14=Beth Nielsen Chapman - Beyond the Blue
TTITLE15=Charley Pride - Crystal chandeliers
TTITLE16=Guy Clark - Desperadoes waiting for a train
TTITLE17=Alabama - Tennessee river
TTITLE18=Carlene Carter - My Dixie Darlin'
TTITLE19=Stella Parton - The danger of a stranger
EXTD=
EXTT0=
EXTT1=
EXTT2=
EXTT3=
EXTT4=
EXTT5=
EXTT6=
EXTT7=
EXTT8=
EXTT9=
EXTT10=
EXTT11=
EXTT12=
EXTT13=
EXTT14=
EXTT15=
EXTT16=
EXTT17=
EXTT18=
EXTT19=
PLAYORDER=
